# xmcd
#
# Track frame offsets: 
#        179
#        12268
#        24031
#        33790
#        45665
#        58912
#        76720
#        85416
#        96145
#        114589
#        127461
#        141104
#
# Disc length: 2048 seconds
#
# Revision: 4
# Processed by: cddbd v1.5.2PL0 Copyright (c) Steve Scherf et al.
# Submitted via: ExactAudioCopy v1.0b4
#
DISCID=9407fe0c
DTITLE=Johnny Cash - Ring Of Fire: The Best Of Johnny Cash
DYEAR=1963
DGENRE=Country
TTITLE0=Ring Of Fire
TTITLE1=I'd Still Be There [B-Side Ring Of Fire]
TTITLE2=What Do I Care [B-Side All Over Again]
TTITLE3=I Still Miss Someone [B-Side Don't Take Your Guns To Town]
TTITLE4=Forty Shades Of Green [B-Side The Rebel - Johnny Yuma]
TTITLE5=Were You There (When They Crucified My Lord) [B-Side Peace In 
TTITLE5=The Valley]
TTITLE6=The Rebel - Johnny Yuma [Johnny Yuma EP]
TTITLE7=Bonanza!
TTITLE8=The Big Battle
TTITLE9=Remember The Alamo [Johnny Yuma EP]
TTITLE10=Tennessee Flat-Top Box
TTITLE11=(There'll Be) Peace In The Valley (For Me)
EXTD=
EXTT0=
EXTT1=
EXTT2=
EXTT3=
EXTT4=
EXTT5=
EXTT6=
EXTT7=
EXTT8=
EXTT9=
EXTT10=
EXTT11=
PLAYORDER=
